<?xml version="1.0" standalone="no"?>
<!DOCTYPE svg PUBLIC "-//W3C//DTD SVG 20010904//EN"
 "http://www.w3.org/TR/2001/REC-SVG-20010904/DTD/svg10.dtd">
<svg version="1.0" xmlns="http://www.w3.org/2000/svg"
 width="225.000000pt" height="225.000000pt" viewBox="0 0 225.000000 225.000000"
 preserveAspectRatio="xMidYMid meet">
<metadata>
Created by potrace 1.14, written by Peter Selinger 2001-2017
</metadata>
<g transform="translate(0.000000,225.000000) scale(0.100000,-0.100000)"
fill="#000000" stroke="none">
<path d="M987 2239 c-89 -10 -245 -54 -332 -95 -168 -77 -352 -232 -454 -383
-84 -123 -144 -266 -176 -416 -20 -93 -20 -328 0 -432 74 -391 350 -710 732
-846 115 -42 373 -80 404 -61 7 4 33 7 58 5 144 -7 420 97 582 218 140 106
279 281 347 436 290 665 -96 1414 -804 1560 -88 18 -263 25 -357 14z"/>
</g>
</svg>
